<svg xmlns="http://www.w3.org/2000/svg" viewBox="0 0 100 100">
  <defs>
    <linearGradient id="grad" x1="0%" y1="0%" x2="100%" y2="100%">
      <stop offset="0%" style="stop-color:#00d9ff;stop-opacity:1" />
      <stop offset="100%" style="stop-color:#00ffaa;stop-opacity:1" />
    </linearGradient>
  </defs>
  <rect x="10" y="25" width="80" height="50" rx="8" fill="none" stroke="url(#grad)" stroke-width="4"/>
  <rect x="18" y="35" width="8" height="8" rx="2" fill="url(#grad)" opacity="0.8"/>
  <rect x="30" y="35" width="8" height="8" rx="2" fill="url(#grad)" opacity="0.8"/>
  <rect x="42" y="35" width="8" height="8" rx="2" fill="url(#grad)" opacity="0.8"/>
  <rect x="54" y="35" width="8" height="8" rx="2" fill="url(#grad)" opacity="0.8"/>
  <rect x="66" y="35" width="8" height="8" rx="2" fill="url(#grad)" opacity="0.8"/>
  <rect x="78" y="35" width="4" height="8" rx="2" fill="url(#grad)" opacity="0.8"/>
  <rect x="22" y="47" width="8" height="8" rx="2" fill="url(#grad)" opacity="0.8"/>
  <rect x="34" y="47" width="8" height="8" rx="2" fill="url(#grad)" opacity="0.8"/>
  <rect x="46" y="47" width="8" height="8" rx="2" fill="url(#grad)" opacity="0.8"/>
  <rect x="58" y="47" width="8" height="8" rx="2" fill="url(#grad)" opacity="0.8"/>
  <rect x="70" y="47" width="8" height="8" rx="2" fill="url(#grad)" opacity="0.8"/>
  <rect x="30" y="59" width="40" height="8" rx="2" fill="url(#grad)" opacity="0.6"/>
</svg>

